<svg width="200" height="200" viewBox="0 0 200 200" fill="none" xmlns="http://www.w3.org/2000/svg">
  <defs>
    <linearGradient id="gradient1" x1="0%" y1="0%" x2="100%" y2="100%">
      <stop offset="0%" style="stop-color:#4A90E2;stop-opacity:1" />
      <stop offset="100%" style="stop-color:#9B59B6;stop-opacity:1" />
    </linearGradient>
  </defs>
  <circle cx="100" cy="100" r="80" fill="url(#gradient1)" fill-opacity="0.1"/>
  <g stroke="url(#gradient1)" stroke-width="2">
    <circle cx="100" cy="50" r="10" fill="none"/>
    <circle cx="50" cy="80" r="10" fill="none"/>
    <circle cx="150" cy="80" r="10" fill="none"/>
    <circle cx="70" cy="130" r="10" fill="none"/>
    <circle cx="130" cy="130" r="10" fill="none"/>
    <circle cx="100" cy="160" r="10" fill="none"/>
    <path d="M100 60 L50 80" stroke-linecap="round"/>
    <path d="M100 60 L150 80" stroke-linecap="round"/>
    <path d="M50 80 L70 130" stroke-linecap="round"/>
    <path d="M150 80 L130 130" stroke-linecap="round"/>
    <path d="M70 130 L100 160" stroke-linecap="round"/>
    <path d="M130 130 L100 160" stroke-linecap="round"/>
    <path d="M100 60 L70 130" stroke-linecap="round"/>
    <path d="M100 60 L130 130" stroke-linecap="round"/>
    <path d="M50 80 L100 160" stroke-linecap="round"/>
    <path d="M150 80 L100 160" stroke-linecap="round"/>
  </g>
  <text x="100" y="190" font-family="Arial, sans-serif" font-size="16" fill="#4A90E2" text-anchor="middle">AI SaaS</text>
</svg>